HIERARCHY
ROOT Hips
{
  OFFSET 263.056 91.6644 -274.608
  CHANNELS 6 Xposition Yposition Zposition Zrotation Xrotation Yrotation
  JOINT LeftUpLeg
  {
    OFFSET 8.64259 1.95398 -2.38835
    CHANNELS 3 Zrotation Xrotation Yrotation
    JOINT LeftLeg
    {
      OFFSET 43.7702 0 0
      CHANNELS 3 Zrotation Xrotation Yrotation
      JOINT LeftFoot
      {
        OFFSET 40.6238 0 0
        CHANNELS 3 Zrotation Xrotation Yrotation
        JOINT LeftToeBase
        {
          OFFSET 12.7242 0 0
          CHANNELS 3 Zrotation Xrotation Yrotation
          End Site
          {
            OFFSET 0 0 0
          }
        }
      }
    }
  }
  JOINT RightUpLeg
  {
    OFFSET -8.2249 1.95398 -2.59336
    CHANNELS 3 Zrotation Xrotation Yrotation
    JOINT RightLeg
    {
      OFFSET 43.5653 0 0
      CHANNELS 3 Zrotation Xrotation Yrotation
      JOINT RightFoot
      {
        OFFSET 40.6238 0 0
        CHANNELS 3 Zrotation Xrotation Yrotation
        JOINT RightToeBase
        {
          OFFSET 12.7242 0 0
          CHANNELS 3 Zrotation Xrotation Yrotation
          End Site
          {
            OFFSET 0 0 0
          }
        }
      }
    }
  }
  JOINT Spine
  {
    OFFSET 0.165834 0.87714 6.61349
    CHANNELS 3 Zrotation Xrotation Yrotation
    JOINT Spine1
    {
      OFFSET 7.38963 1.71661e-005 0
      CHANNELS 3 Zrotation Xrotation Yrotation
      JOINT Spine2
      {
        OFFSET 11.9445 1.14441e-005 0
        CHANNELS 3 Zrotation Xrotation Yrotation
        JOINT Spine3
        {
          OFFSET 14.7254 4.19617e-005 0
          CHANNELS 3 Zrotation Xrotation Yrotation
          JOINT Spine4
          {
            OFFSET 10.9679 0 0
            CHANNELS 3 Zrotation Xrotation Yrotation
            JOINT RightShoulder
            {
              OFFSET 2.46616 -1.6653 3.69651
              CHANNELS 3 Zrotation Xrotation Yrotation
              JOINT RightArm
              {
                OFFSET 13.0012 0 0
                CHANNELS 3 Zrotation Xrotation Yrotation
                JOINT RightForeArm
                {
                  OFFSET 28.7848 1.52588e-005 0
                  CHANNELS 3 Zrotation Xrotation Yrotation
                  JOINT RightHand
                  {
                    OFFSET 26.5688 1.52588e-005 0
                    CHANNELS 3 Zrotation Xrotation Yrotation
                    End Site
                    {
                      OFFSET 0 0 0
                    }
                  }
                }
              }
            }
            JOINT LeftShoulder
            {
              OFFSET 2.38034 -1.29275 -3.7523
              CHANNELS 3 Zrotation Xrotation Yrotation
              JOINT LeftArm
              {
                OFFSET 16.3182 6.10352e-005 0
                CHANNELS 3 Zrotation Xrotation Yrotation
                JOINT LeftForeArm
                {
                  OFFSET 27.0901 0 0
                  CHANNELS 3 Zrotation Xrotation Yrotation
                  JOINT LeftHand
                  {
                    OFFSET 24.5451 1.52588e-005 0
                    CHANNELS 3 Zrotation Xrotation Yrotation
                    End Site
                    {
                      OFFSET 0 0 0
                    }
                  }
                }
              }
            }
            JOINT Neck
            {
              OFFSET 5.0226 -0.0266342 0
              CHANNELS 3 Zrotation Xrotation Yrotation
              JOINT Head
              {
                OFFSET 6.69364 2.86102e-005 0
                CHANNELS 3 Zrotation Xrotation Yrotation
                End Site
                {
                  OFFSET 0 0 0
                }
              }
            }
          }
        }
      }
    }
  }
}
MOTION
Frames:	12
Frame Time:	0.0416667
-287.142 79.6669 -288.177 80.7977 -39.865 83.7262 -174.402 66.3399 89.5435 -57.9837 22.8693 0.241575 79.344 34.0822 -22.5444 11.9627 -44.2648 36.0175 177.058 48.6985 97.9171 -84.1833 5.46295 -0.955298 50.8066 6.21717 5.17318 61.86 5.88131 16.3141 -0.670613 8.26695 -90.2146 10.3385 -1.43419 -0.301665 -1.33165 -1.44608 -0.23824 -23.8718 -1.27721 -0.718813 -3.85916 -1.27723 -0.718818 78.2863 -54.363 -116.636 15.2652 12.5493 26.9822 -20.8501 12.4874 -141.012 13.338 -1.45074 -11.0013 -104.342 -41.5804 53.9002 -32.4293 9.38592 13.3539 -6.31451 -7.25715 -59.6283 33.8887 0.872505 -1.42941 23.3305 2.08283 2.87417 -1.19287 1.03742 0.851124 
-280.571 81.6179 -281.898 77.6995 -44.8988 82.0016 -174.308 63.3539 94.8077 -74.5837 17.9198 -0.227732 96.9865 33.3291 -23.8469 11.9879 -44.7053 36.4512 178.4 36.9098 98.6847 -74.8484 2.83076 -2.31635 52.1882 4.68724 3.85978 80.4859 7.65639 10.5069 0.248759 8.15428 -89.995 10.5714 0.497737 -0.0402586 -1.09948 0.495486 -0.0621228 -23.6356 0.486823 0.111195 -3.62293 0.486833 0.111191 79.2367 -51.4648 -116.426 19.2493 14.8572 14.3966 -21.2188 8.7761 -133.631 12.5847 -1.01766 -8.47871 -104.894 -41.148 52.8367 -35.5811 6.84634 21.5816 -6.60183 -7.94165 -56.7128 34.4275 1.03262 -1.00885 26.5856 0.532672 0.917453 -4.43479 0.15378 1.52056 
-272.639 85.9049 -273.151 75.4608 -49.1855 76.488 -168.128 53.1238 90.8094 -77.8334 16.4499 -1.59411 78.0477 15.4122 -6.37307 17.3 -23.8676 23.9418 -179.673 16.1432 94.7199 -51.2488 -1.53324 -4.35761 46.9269 3.61604 3.31024 95.2648 8.5305 6.97312 1.08557 7.85297 -89.4856 11.1578 2.39969 0.792629 -0.511095 2.43225 0.686195 -23.0579 2.05052 1.47741 -3.04527 2.05052 1.4774 83.4014 -46.0201 -112.257 25.0831 13.7554 8.316 -22.8096 5.30693 -126.995 6.3583 -0.876268 -11.0173 -102.731 -42.4203 56.7754 -40.0239 8.70989 31.6257 -7.16055 -7.1544 -63.8839 32.9081 1.30538 -0.0128181 24.706 -0.997653 3.45155 -5.36527 -2.17219 0.0765778 
-261.791 89.9581 -263.249 76.0434 -49.3159 75.7307 -168.639 51.6606 89.4891 -61.3237 15.9236 -3.39988 50.7841 -7.19233 4.82652 35.5337 7.81978 11.3226 178.495 -3.49851 89.2484 -26.8919 -6.27026 -3.7 43.1836 3.30016 3.18788 84.6778 9.2225 12.7309 1.46826 7.6207 -89.2383 11.618 3.27739 1.17719 -0.0492474 3.32605 1.03168 -22.6056 2.77207 2.10827 -2.59293 2.77206 2.10825 85.0377 -42.7322 -110.872 28.0022 9.363 7.70305 -27.6919 -0.674575 -121.827 -8.47348 0.411017 -14.5738 -99.5795 -41.3102 61.1876 -45.3005 8.25016 39.3639 -7.13449 -6.30479 -68.5932 35.3822 1.33594 -0.165817 22.13 -2.74819 4.70834 -5.15196 -4.16861 -2.1878 
-249.271 93.6556 -252.523 75.8348 -48.431 75.4422 -172.057 45.463 89.6996 -32.4053 24.0633 -4.66748 48.0447 -8.2994 7.84812 40.1574 13.702 8.88275 177.438 -9.45158 87.7674 -25.7829 -9.90068 -5.40566 50.9507 1.95937 1.71581 -0.506508 -6.68257 14.3865 1.68667 7.40809 -89.1039 12.0379 3.77634 1.37524 0.371874 3.83319 1.2075 -22.191 3.18842 2.44735 -2.17835 3.1884 2.44734 85.7745 -41.7385 -110.02 30.0862 -1.09385 9.25809 -33.2757 -0.526257 -121.009 -22.8842 1.32848 -11.8662 -99.2343 -39.7473 61.0539 -47.5921 3.09017 44.4155 -4.71236 -5.40671 -74.2592 36.422 1.9272 1.35637 20.2605 -4.00247 4.59108 -5.37477 -5.2523 -2.82994 
-237.175 94.6081 -242.891 76.9827 -45.7077 79.44 -173.361 40.8282 89.8415 -22.1121 19.909 -3.57378 48.5431 -7.96096 4.78298 44.4608 19.6536 10.9579 178.171 -5.56182 92.5447 -46.7504 -10.142 -5.03754 69.7846 -4.70686 -2.35959 -30.3671 11.466 -24.7453 1.52716 7.24585 -89.412 12.3732 3.31401 0.795426 0.706344 3.34579 0.648646 -21.8545 2.92164 1.75536 -1.84187 2.92164 1.75536 86.1445 -42.0503 -109.294 33.6319 -14.2287 12.8425 -32.7564 10.04 -115.859 -24.6355 1.37784 -11.3125 -97.1976 -40.138 64.5054 -48.0162 3.3968 42.2386 -0.98516 -4.12036 -75.9643 37.4515 1.48035 -0.0171972 18.1662 -4.52955 3.61024 -4.05907 -5.43021 -2.90575 
-226.641 93.4778 -233.305 83.4866 -44.0819 83.6204 -171.895 32.8291 87.3803 -28.11 18.9228 -4.09205 49.9733 -6.02176 6.34119 45.4848 18.6907 0.947419 175.905 1.71203 89.2289 -76.4633 -6.70566 -4.39196 76.5338 -7.47049 -3.30617 -33.9302 15.1138 -29.1597 1.17359 7.58072 -89.3344 11.7009 2.64652 1.04977 0.0323151 2.69015 0.932204 -22.5155 2.20866 1.79684 -2.50287 2.20867 1.79684 84.2007 -46.1185 -110.972 35.1724 -20.8852 19.4478 -31.9582 10.8917 -100.411 -30.3008 3.77143 -18.7163 -97.8287 -42.0482 64.2591 -44.1574 1.43527 38.337 0.0767316 -4.06279 -79.8196 36.5729 2.17184 2.01048 13.8356 -4.5804 1.23543 -0.663084 -4.83388 -2.66852 
-216.687 91.2156 -224.454 88.0244 -44.4122 85.1646 -171.067 24.932 85.2305 -38.6838 17.4606 -4.53517 60.497 6.77906 15.3752 45.6512 16.2536 -12.6209 175.126 15.6352 92.2805 -91.7697 7.28306 -4.16364 47.3203 -0.145521 0.328888 17.5505 3.25949 -19.2237 0.80296 7.84922 -89.0084 11.1583 2.05895 1.77364 -0.512001 2.135 1.68129 -23.0453 1.43084 2.31029 -3.03267 1.43083 2.31029 81.6857 -49.6918 -113.506 36.7957 -20.2158 25.7084 -28.8252 0.0361279 -87.9739 -37.8574 2.94714 -13.4979 -98.0241 -43.1997 64.3998 -39.7601 1.01356 31.8014 2.48145 -3.35983 -83.4518 38.0796 2.4534 2.53253 9.81049 -3.61657 -1.1744 3.78701 -3.40772 -2.31152 
-206.61 89.7595 -215.779 85.0222 -39.8182 82.3433 -172.923 20.2041 83.2899 -42.8336 18.0088 -2.85439 64.0386 13.549 20.5123 53.4698 23.4967 -11.1276 171.376 33.4951 90.7906 -97.6401 16.0365 -3.51212 43.5887 -1.38599 -0.66985 32.9034 0.0806466 6.49873 -0.0983149 7.77856 -88.8445 11.3077 0.342682 2.26684 -0.365114 0.442089 2.24957 -22.8846 -0.354251 2.26507 -2.87194 -0.354254 2.26505 79.807 -52.503 -115.195 35.9109 -18.7811 29.0937 -32.2724 -9.85651 -74.0464 -20.2875 -0.506679 -1.76713 -101.134 -43.4276 59.6816 -32.6967 0.185846 22.2176 5.75802 -2.98573 -87.6837 39.1767 3.34695 4.67498 13.8693 -3.01612 -2.94279 1.99444 -2.22077 -1.16103 
-195.869 91.3236 -206.686 86.2737 -35.3676 84.3592 -175.444 8.36899 89.3031 -36.5916 24.1421 -0.519924 60.5813 8.5092 16.524 57.9426 30.2713 -3.62582 167.935 42.7298 91.7398 -90.5984 15.7786 -1.53815 47.6473 -1.0404 -0.414618 33.0807 0.114275 5.40782 -0.840243 7.78267 -89.1214 11.3158 -1.26256 1.87574 -0.355886 -1.1788 1.92946 -22.8895 -1.76787 1.40966 -2.87689 -1.76788 1.40965 79.1706 -54.3068 -115.413 37.5385 -19.46 37.7744 -10.9984 -3.44383 -69.5823 -29.3979 -1.99323 3.32094 -99.3352 -40.7955 61.3521 -31.2698 1.33968 15.4226 7.5561 -3.56979 -94.5642 39.291 3.662 5.48013 13.1154 -2.11068 -3.91842 1.67399 -1.04181 0.456017 
-184.456 94.1174 -196.675 86.63 -35.9425 85.9454 -174.123 -6.36221 86.2773 -20.9953 26.5177 0.35394 46.8388 -7.66408 0.13919 56.7536 33.785 7.41468 172.432 44.2527 91.0251 -69.896 9.17358 0.729842 48.2456 1.32712 1.41151 35.6549 0.473169 0.850678 -1.06144 7.61917 -89.5096 11.6485 -1.88131 1.17568 -0.0217033 -1.82776 1.25734 -22.5667 -2.14765 0.55573 -2.55405 -2.14765 0.555724 80.5467 -53.702 -113.69 40.6605 -19.4874 46.6904 -15.2967 -4.10194 -72.0961 -26.5876 -1.45837 1.74873 -97.6428 -40.237 63.8267 -31.6376 2.27629 14.5664 11.1319 -6.02618 -107.4 36.708 3.62695 6.07299 12.0673 -0.716503 -3.71699 1.51587 0.327773 2.86075 
-172.779 96.1337 -185.715 84.5836 -36.3481 84.9356 -172.563 -15.0612 93.831 -11.2741 26.5377 0.583461 33.0282 -16.5663 -7.0038 30.2411 0.919974 4.85728 177.561 39.7884 88.9625 -37.8943 9.12963 2.05534 48.2421 2.19822 2.08681 34.1778 0.244746 5.84757 -1.29971 7.26926 -89.6975 12.3465 -2.43916 0.880303 0.677406 -2.39804 0.986847 -21.8759 -2.59092 0.106068 -1.8633 -2.5909 0.106066 81.7229 -51.9623 -112.62 42.5365 -17.4555 51.1053 -16.1978 -2.07239 -74.9472 -20.7479 -0.813275 -0.294126 -96.8428 -39.5057 64.8317 -32.5155 4.48926 16.91 14.0253 -10.0411 -116.32 38.1457 3.72181 5.93142 11.33 0.10004 -4.09653 0.579211 1.21072 4.21014 
